<?xml version="1.0" encoding="utf-8"?>
<!-- Generator: Adobe Illustrator 25.0.0, SVG Export Plug-In . SVG Version: 6.00 Build 0)  -->
<svg version="1.1" id="レイヤ_xFF0D__1" xmlns="http://www.w3.org/2000/svg" xmlns:xlink="http://www.w3.org/1999/xlink" x="0px"
	 y="0px" viewBox="0 0 594 841" style="enable-background:new 0 0 594 841;" xml:space="preserve">
<style type="text/css">
	.st0{fill:#004290;}
</style>
<g>
	<g>
		<path class="st0" d="M121.7,616.2c-2.9,0-4.1-1.7-4.3-4.1c-0.2-2.6-0.2-5.8-0.2-10.9h-0.4c-4.2,7.9-12.1,18.3-29.3,18.3
			c-21.8,0-33.1-14.1-32.8-36.7c0.4-26.8,20.9-37.8,50.9-37.8h11c0-9.7,1.8-23.7-12.1-23.1c-6.8,0.4-9.9,7-10.8,12.9
			c-0.2,1.4-0.5,4-2.3,4H64.1c-1.6,0-3.5-1.1-3.2-4.8c1.3-12.7,7.4-20.4,15.7-24.9c9.5-5.3,21.4-6.6,31.7-6.6
			c18.7,0,41.2,9.5,40.8,34.3v56.7c0,4.1,0.6,8.3,1.6,18.4c0.1,1.3-0.4,4.3-2.8,4.3L121.7,616.2L121.7,616.2z M100.3,595.3
			c15,0,16.3-16.9,16.3-31.7c-7.3,0-14.3-0.4-19,2.4c-5.1,3.1-9.2,7-9.2,14.7C88.4,588.7,93.7,595.3,100.3,595.3z"/>
		<path class="st0" d="M221.4,539.9c-2.7,0-3.6-2.1-3.9-4c-0.3-2.1-0.9-3.9-1.9-5.3c-1.8-2.4-4.8-4-9.5-4c-5.1,0-9.5,3.6-8.2,9.9
			c1.7,8.2,14.1,7.7,35.9,15.8c11,4.2,18.5,12.3,18.5,30.3c0,29.2-22.9,36.7-43.9,36.7c-21.5,0-42.5-5-44.2-34.8
			c-0.1-1.4,0.4-4.3,3.5-4.3h25.8c3.2,0,3.4,2.7,3.6,3.8c0.2,2.3,1.1,4.1,2.4,6.1c2,2.9,5.5,5.3,8.8,5.3c6.8,0,11.2-3.3,11.2-10.4
			c0-19.6-54.3-7.9-54.3-47.9c0-27.3,24.1-34.7,42.4-34.7c21,0,40.5,6,43.1,33.9c0.1,1.7-0.6,3.5-2.8,3.5L221.4,539.9L221.4,539.9z"
			/>
		<path class="st0" d="M271.5,616.2c-2.4,0-4.1-1.6-4.1-3.9V507.4c0-2.3,1.7-3.9,4.1-3.9h26.6c2.4,0,4.1,1.6,4.1,3.9v104.9
			c0,2.3-1.7,3.9-4.1,3.9L271.5,616.2L271.5,616.2z M304,558.1c-1.1-2-1-4.9,0.3-6.8l27.4-42.2c1.2-1.9,3.9-3.3,6.2-3.3h29.7
			c2.4,0,3.1,1.4,1.9,3.3l-26.7,39.8c-1.3,1.9-1.4,4.7-0.3,6.7l31.8,57.1c1.1,2,0.2,3.4-2.2,3.4h-33c-2.4,0-4.9-1.5-5.9-3.5
			L304,558.1z"/>
	</g>
	<g>
		<path class="st0" d="M214.3,325.2c8.9,0,17.6-0.8,26.1-2.4c5.1-1,7.4,0.4,8.4,5c0.5,2.7,27.7,116.2,27.7,116.2
			c0.9,4.2,3.3,7,7.1,7l64.9,0.1c2.5,0,5.9-2,5.1-5.9c-0.1-0.6-33.8-131.7-39.1-156.4c-0.9-3.9-0.5-4.3,2-6.9
			c24.8-25.6,40.1-60.5,40.1-99c0-78.6-63.8-142.4-142.4-142.4S71.9,104.2,71.9,182.8c0,38.5,15.3,73.4,40.1,99
			c2.5,2.6,2.9,3,2.1,6.9c-5.4,24.7-39,155.9-39.1,156.4c-0.7,3.9,2.7,5.9,5.2,5.9l64.9-0.1c3.9,0,6.3-2.8,7.1-7
			c0,0,27.2-113.5,27.7-116.2c0.9-4.6,3.3-6,8.4-5C196.6,324.5,205.4,325.2,214.3,325.2z M214.3,243.9c-37.4,0-67.8-30.4-67.8-67.8
			s30.4-67.8,67.8-67.8s67.8,30.4,67.8,67.8C282,213.5,251.7,243.9,214.3,243.9z"/>
	</g>
</g>
</svg>
