<?xml version="1.0" encoding="utf-8"?>
<!-- Generator: Adobe Illustrator 25.0.0, SVG Export Plug-In . SVG Version: 6.00 Build 0)  -->
<svg version="1.1" id="Layer_1" xmlns="http://www.w3.org/2000/svg" xmlns:xlink="http://www.w3.org/1999/xlink" x="0px" y="0px"
	 viewBox="0 0 512 512" style="enable-background:new 0 0 512 512;" xml:space="preserve">
<style type="text/css">
	.st0{fill:#969696;}
</style>
<g>
	<g>
		<path class="st0" d="M402.4,381.1H199l-11.8-47.2h266.6L512,101.1H129l-20.2-80.6H0v33.4h82.8L165,382.7
			c-24.1,6-41.9,27.7-41.9,53.6c0,30.5,24.8,55.2,55.2,55.2c30.5,0,55.2-24.8,55.2-55.2c0-7.8-1.6-15.1-4.5-21.8h122.6
			c-2.9,6.7-4.5,14.1-4.5,21.8c0,30.5,24.8,55.2,55.2,55.2c30.5,0,55.2-24.8,55.2-55.2C457.6,405.8,432.8,381.1,402.4,381.1z
			 M287,300.4h-37.1l-8.3-66.3H287L287,300.4L287,300.4z M411.9,134.5h57.3l-16.6,66.3h-49L411.9,134.5z M399.5,234.2h44.9
			l-16.6,66.3h-36.6L399.5,234.2z M320.4,134.5h57.8l-8.3,66.3h-49.5L320.4,134.5L320.4,134.5z M320.4,234.2h45.4l-8.3,66.3h-37.1
			L320.4,234.2L320.4,234.2z M287,134.5v66.3h-49.5l-8.3-66.3L287,134.5L287,134.5z M137.4,134.5h58.2l8.3,66.3H154L137.4,134.5z
			 M162.3,234.2H208l8.3,66.3h-37.4L162.3,234.2z M178.3,458.1c-12,0-21.8-9.8-21.8-21.8c0-12,9.8-21.8,21.8-21.8
			s21.8,9.8,21.8,21.8C200.2,448.3,190.4,458.1,178.3,458.1z M402.4,458.1c-12,0-21.8-9.8-21.8-21.8c0-12,9.8-21.8,21.8-21.8
			s21.8,9.8,21.8,21.8C424.2,448.3,414.4,458.1,402.4,458.1z"/>
	</g>
</g>
</svg>
