<?xml version="1.0" encoding="utf-8"?>
<!-- Generator: Adobe Illustrator 25.3.1, SVG Export Plug-In . SVG Version: 6.00 Build 0)  -->
<svg version="1.1" id="圖層_1" xmlns="http://www.w3.org/2000/svg" xmlns:xlink="http://www.w3.org/1999/xlink" x="0px" y="0px"
	 viewBox="0 0 25 25" style="enable-background:new 0 0 25 25;" xml:space="preserve">
<style type="text/css">
	.st0{fill:none;}
	.st1{fill:#FFFFFF;}
</style>
<rect x="0" y="0" class="st0" width="25" height="25"/>
<path class="st1" d="M12.2,24.5c-3.1,0-6.3,0-9.4,0c0,0-0.1,0-0.1,0c-0.9-0.2-1.6-0.7-2-1.6c-0.1-0.2-0.2-0.5-0.2-0.7
	c0-6.5,0-12.9,0-19.4c0,0,0-0.1,0-0.1c0.3-1.3,1.3-2.2,2.7-2.2c6.2,0,12.4,0,18.6,0c1.5,0,2.7,1.2,2.7,2.7c0,6.2,0,12.4,0,18.6
	c0,0.8-0.4,1.5-1,2.1c-0.4,0.3-0.9,0.5-1.3,0.6c-1.8,0-3.6,0-5.3,0c-0.4-0.2-0.6-0.5-0.6-0.9c0-2.2,0-4.5,0-6.7
	c0-0.6,0.3-0.9,0.9-0.9c0.7,0,1.4,0,2.1,0c0.2,0,0.2-0.1,0.3-0.2c0.1-0.6,0.3-1.2,0.4-1.8c0-0.1,0.1-0.3,0.1-0.5c-0.1,0-0.2,0-0.3,0
	c-0.9,0-1.7,0-2.6,0c-0.6,0-0.9-0.3-0.9-0.9c0-1,0-2,0-2.9c0-0.6,0.2-1,0.7-1.4C17.3,8.1,17.6,8,18,8c0.4,0,0.8,0,1.2,0
	c0-0.9,0-1.7,0-2.5c-0.7,0-1.4,0-2.1,0c-0.3,0-0.6,0-0.9,0.1c-1.9,0.4-3.4,2.1-3.5,4c0,1,0,1.9,0,2.9c0,0.7-0.3,1-1,1
	c-0.6,0-1.2,0-1.8,0c-0.1,0-0.2,0-0.2,0c0,0.8,0,1.6,0,2.5c0.1,0,0.2,0,0.3,0c0.6,0,1.3,0,1.9,0c0.4,0,0.6,0.1,0.8,0.5
	c0.1,0.1,0.1,0.3,0.1,0.5c0,2.2,0,4.4,0,6.6C12.8,23.9,12.7,24.3,12.2,24.5z M11.3,12c0-0.1,0-0.2,0-0.4c0-0.9,0-1.8,0.1-2.7
	c0.3-2.3,2.3-4.4,4.7-4.8C17.4,3.8,18.7,4,20.1,4c0.4,0,0.7,0.3,0.7,0.8c0,1.3,0,2.6,0,3.9c0,0.5-0.3,0.8-0.8,0.8
	c-0.6,0-1.2,0-1.9,0c-0.3,0-0.4,0.1-0.4,0.4c0,0.5,0,0.9,0,1.4c0,0.2,0,0.5,0,0.8c0.1,0,0.2,0,0.3,0c1,0,1.9,0,2.9,0
	c0.6,0,0.9,0.4,0.8,1c-0.3,1.3-0.6,2.6-1,3.9c-0.1,0.4-0.4,0.7-0.8,0.7c-0.6,0-1.3,0-1.9,0c-0.1,0-0.2,0-0.2,0c0,1.8,0,3.7,0,5.5
	c0.1,0,0.2,0,0.3,0c1.2,0,2.4,0,3.6,0c0.9,0,1.4-0.5,1.4-1.4c0-6.1,0-12.2,0-18.3C23,2.5,22.5,2,21.6,2C15.6,2,9.5,2,3.4,2
	C2.5,2,2,2.5,2,3.4c0,6.1,0,12.2,0,18.2C2,22.5,2.5,23,3.4,23c2.5,0,5.1,0,7.6,0c0.1,0,0.2,0,0.3,0c0-1.8,0-3.7,0-5.5
	c-0.1,0-0.2,0-0.2,0c-0.6,0-1.2,0-1.9,0c-0.6,0-0.9-0.3-0.9-0.9c0-1.2,0-2.5,0-3.7c0-0.6,0.3-0.9,0.9-0.9C9.8,12,10.5,12,11.3,12z"
	/>
</svg>
