<?xml version="1.0" encoding="utf-8"?>
<!-- Generator: Adobe Illustrator 25.3.1, SVG Export Plug-In . SVG Version: 6.00 Build 0)  -->
<svg version="1.1" id="圖層_1" xmlns="http://www.w3.org/2000/svg" xmlns:xlink="http://www.w3.org/1999/xlink" x="0px" y="0px"
	 viewBox="0 0 25 25" style="enable-background:new 0 0 25 25;" xml:space="preserve">
<style type="text/css">
	.st0{fill:none;}
	.st1{fill:#FFFFFF;}
</style>
<rect x="0" y="0" class="st0" width="25" height="25"/>
<g>
	<path class="st1" d="M24.5,10.9c-0.2,0.3-0.3,0.5-0.7,0.4c-0.2,0-0.3-0.1-0.4-0.2c-2.9-2.1-5.7-4.2-8.6-6.3
		c-0.8-0.6-1.5-1.1-2.3-1.7C12,3.6,11.4,4,10.9,4.4c-3.1,2.3-6.2,4.5-9.3,6.8c-0.2,0.2-0.4,0.2-0.7,0.2c-0.2-0.1-0.4-0.2-0.4-0.5
		c-0.1-0.2,0-0.5,0.2-0.6c0.3-0.2,0.7-0.5,1-0.7C5.2,7,8.6,4.5,12,2c0.4-0.3,0.6-0.3,1,0c3.7,2.7,7.4,5.4,11.1,8.1
		c0.1,0.1,0.2,0.3,0.4,0.4C24.5,10.7,24.5,10.8,24.5,10.9z"/>
	<path class="st1" d="M4.4,21.9c1.7,0,3.3,0,5,0c0-0.1,0-0.2,0-0.3c0-1.7,0-3.4,0-5.1c0-1.4,0.9-2.6,2.2-3c1.9-0.6,3.8,0.7,4,2.6
		c0,0.2,0,0.4,0,0.6c0,1.6,0,3.2,0,4.8c0,0.1,0,0.2,0,0.3c1.7,0,3.3,0,5,0c0-0.1,0-0.2,0-0.3c0-3.2,0-6.3,0-9.5c0-0.2,0-0.4,0.2-0.6
		c0.3-0.3,0.9-0.2,1,0.3c0,0.1,0,0.2,0,0.3c0,3.4,0,6.8,0,10.2c0,0,0,0.1,0,0.1c0,0.4-0.3,0.7-0.7,0.7c-1.2,0-2.4,0-3.6,0
		c-0.8,0-1.6,0-2.4,0c-0.6,0-0.8-0.2-0.8-0.8c0-1.9,0-3.9,0-5.8c0-0.9-0.5-1.6-1.3-1.9c-1.2-0.4-2.4,0.5-2.4,1.9c0,1.9,0,3.9,0,5.8
		c0,0.1,0,0.2,0,0.3c-0.1,0.3-0.3,0.5-0.6,0.5c-2.1,0-4.1,0-6.2,0c-0.4,0-0.6-0.3-0.7-0.7c0-0.4,0-0.7,0-1.1c0-3.1,0-6.2,0-9.3
		c0-0.4,0.2-0.7,0.5-0.8C4,11.3,4.4,11.6,4.4,12c0,0.1,0,0.2,0,0.3c0,3.1,0,6.2,0,9.4C4.4,21.7,4.4,21.8,4.4,21.9z"/>
</g>
</svg>
