<?xml version="1.0" encoding="utf-8"?>
<!-- Generator: Adobe Illustrator 25.3.1, SVG Export Plug-In . SVG Version: 6.00 Build 0)  -->
<svg version="1.1" id="圖層_1" xmlns="http://www.w3.org/2000/svg" xmlns:xlink="http://www.w3.org/1999/xlink" x="0px" y="0px"
	 viewBox="0 0 25 25" style="enable-background:new 0 0 25 25;" xml:space="preserve">
<style type="text/css">
	.st0{fill:#FFFFFF;}
	.st1{fill:none;}
</style>
<g>
	<path class="st0" d="M0.5,18.6c0-4.1,0-8.1,0-12.2c0-0.2,0.1-0.4,0.1-0.7C1.3,2.6,3.9,0.5,7,0.5c3.6,0,7.3,0,10.9,0
		c0.4,0,0.9,0,1.3,0.1c3.1,0.6,5.2,3.3,5.2,6.4c0,3.7,0,7.3,0,11c0,0.4,0,0.9-0.1,1.3c-0.6,2.6-2.2,4.3-4.8,5
		c-0.3,0.1-0.6,0.1-0.9,0.2c-4.1,0-8.1,0-12.2,0c-0.2,0-0.5-0.1-0.7-0.1c-2.6-0.6-4.3-2.2-5-4.8C0.6,19.2,0.6,18.9,0.5,18.6z
		 M1.9,12.4c0,1.8,0,3.6,0,5.4c0,0.4,0,0.8,0.1,1.2c0.6,2.5,2.6,4,5.1,4c3.6,0,7.2,0,10.8,0c0.4,0,0.8,0,1.2-0.1
		c2.5-0.6,4-2.6,4-5.1c0-3.6,0-7.2,0-10.8c0-0.4,0-0.8-0.1-1.1c-0.5-2.4-2.5-4.1-5-4.1c-3.6,0-7.2,0-10.9,0C5.3,1.9,3.9,2.6,2.9,4
		C2.2,4.9,1.9,6,1.9,7.1C1.9,8.9,1.9,10.7,1.9,12.4z"/>
	<path class="st0" d="M5.9,12.5c0-3.6,3-6.6,6.6-6.6c3.6,0,6.6,3,6.5,6.6c0,3.6-3,6.5-6.6,6.5C8.9,19,5.9,16.1,5.9,12.5z M12.5,7.3
		c-2.9,0.1-5.1,2.4-5.1,5.2c0,2.9,2.4,5.1,5.2,5.1c2.9,0,5.1-2.3,5.1-5.2C17.6,9.5,15.3,7.3,12.5,7.3z"/>
	<circle class="st0" cx="19.3" cy="5.6" r="1.5"/>
</g>
<rect x="0" y="0" class="st1" width="25" height="25"/>
</svg>
