<?xml version="1.0" encoding="utf-8"?>
<!-- Generator: Adobe Illustrator 25.0.0, SVG Export Plug-In . SVG Version: 6.00 Build 0)  -->
<svg version="1.1" id="Capa_1" xmlns="http://www.w3.org/2000/svg" xmlns:xlink="http://www.w3.org/1999/xlink" x="0px" y="0px"
	 viewBox="0 0 260.3 260.3" style="enable-background:new 0 0 260.3 260.3;" xml:space="preserve">
<style type="text/css">
	.st0{fill:#E1E1E1;}
</style>
<g>
	<path class="st0" d="M258.7,57.5c-1.4-1.8-3.6-2.9-5.9-2.9H62l-8.3-32.1c-0.9-3.3-3.8-5.6-7.3-5.6H7.5c-4.1,0-7.5,3.4-7.5,7.5
		s3.4,7.5,7.5,7.5h33.1L48.9,64l0,0l29.4,113c0.9,3.3,3.8,5.6,7.3,5.6h137.8c3.4,0,6.4-2.3,7.3-5.6l29.4-113
		C260.6,61.7,260.1,59.3,258.7,57.5z M117.9,167.5H91.4l-5.9-22.7h32.4V167.5z M117.9,129.9H81.6l-5.9-22.7h42.2
		C117.9,107.2,117.9,129.9,117.9,129.9z M117.9,92.2H71.8l-5.9-22.7h52V92.2z M176.1,167.5h-43.2v-22.7h43.2V167.5z M176.1,129.9
		h-43.2v-22.7h43.2V129.9z M176.1,92.2h-43.2V69.5h43.2V92.2z M217.6,167.5h-26.5v-22.7h32.4L217.6,167.5z M227.4,129.9h-36.3v-22.7
		h42.2L227.4,129.9z M237.2,92.2h-46.1V69.5h52L237.2,92.2z"/>
	<path class="st0" d="M105.5,188.6c-15.1,0-27.4,12.3-27.4,27.4c0,15.1,12.3,27.4,27.4,27.4s27.4-12.3,27.4-27.4
		C132.9,200.9,120.6,188.6,105.5,188.6z M105.5,228.4c-6.8,0-12.4-5.6-12.4-12.4c0-6.8,5.6-12.4,12.4-12.4s12.4,5.6,12.4,12.4
		C117.9,222.9,112.3,228.4,105.5,228.4z"/>
	<path class="st0" d="M203.5,188.6c-15.1,0-27.4,12.3-27.4,27.4c0,15.1,12.3,27.4,27.4,27.4c15.1,0,27.4-12.3,27.4-27.4
		C230.9,200.9,218.6,188.6,203.5,188.6z M203.5,228.4c-6.8,0-12.4-5.6-12.4-12.4c0-6.8,5.6-12.4,12.4-12.4c6.8,0,12.4,5.6,12.4,12.4
		C215.9,222.9,210.3,228.4,203.5,228.4z"/>
</g>
</svg>
